<svg width="40" height="40" viewBox="0 0 40 40" fill="none" xmlns="http://www.w3.org/2000/svg">
<g clip-path="url(#clip0_1_489)">
<path d="M19.9999 3.33325C10.7999 3.33325 3.33325 10.7999 3.33325 19.9999C3.33325 29.1999 10.7999 36.6666 19.9999 36.6666C29.1999 36.6666 36.6666 29.1999 36.6666 19.9999C36.6666 10.7999 29.1999 3.33325 19.9999 3.33325ZM26.6666 21.6666H21.6666V26.6666C21.6666 27.5833 20.9166 28.3333 19.9999 28.3333C19.0833 28.3333 18.3333 27.5833 18.3333 26.6666V21.6666H13.3333C12.4166 21.6666 11.6666 20.9166 11.6666 19.9999C11.6666 19.0833 12.4166 18.3333 13.3333 18.3333H18.3333V13.3333C18.3333 12.4166 19.0833 11.6666 19.9999 11.6666C20.9166 11.6666 21.6666 12.4166 21.6666 13.3333V18.3333H26.6666C27.5833 18.3333 28.3333 19.0833 28.3333 19.9999C28.3333 20.9166 27.5833 21.6666 26.6666 21.6666Z" fill="#0096C8"/>
</g>
<defs>
<clipPath id="clip0_1_489">
<rect width="40" height="40" fill="white"/>
</clipPath>
</defs>
</svg>
